HIERARCHY
ROOT root
{
	OFFSET	0	13.1	24.9
	CHANNELS 6  Xposition Yposition Zposition Xrotation Yrotation Zrotation
	JOINT spine_1
	{
		OFFSET	0	9.99999	0
		CHANNELS 3  Xrotation Yrotation Zrotation
		JOINT spine_2
		{
			OFFSET	0	112	-10
			CHANNELS 3  Xrotation Yrotation Zrotation
			JOINT spine_3
			{
				OFFSET	0	206.5	19.3
				CHANNELS 3  Xrotation Yrotation Zrotation
				JOINT spine_4
				{
					OFFSET	0	110.4	14.6
					CHANNELS 3  Xrotation Yrotation Zrotation
					JOINT neck_1
					{
						OFFSET	0	71.8	-50.3
						CHANNELS 3  Xrotation Yrotation Zrotation
						JOINT neck_2
						{
							OFFSET	0	86.2	-25.8
							CHANNELS 3  Xrotation Yrotation Zrotation
							JOINT head_ee
							{
								OFFSET	0	179.8	-8.7
								CHANNELS 3  Xrotation Yrotation Zrotation
								End Site
								{
									OFFSET	1	0	0
								}
							}
						}
					}
					JOINT left_clavicle
					{
						OFFSET	-43.2	22.4	-70.8
						CHANNELS 3  Xrotation Yrotation Zrotation
						JOINT left_shoulder
						{
							OFFSET	-93.9	-5.79999	48.7
							CHANNELS 3  Xrotation Yrotation Zrotation
							JOINT left_elbow
							{
								OFFSET	-291.4	-30.8	15.2
								CHANNELS 3  Xrotation Yrotation Zrotation
								JOINT left_lowarm_twist
								{
									OFFSET	-110.7	-3.89999	13.6
									CHANNELS 3  Xrotation Yrotation Zrotation
									JOINT left_hand
									{
										OFFSET	-110.7	-3.89999	13.6
										CHANNELS 3  Xrotation Yrotation Zrotation
										JOINT left_ee
										{
											OFFSET	-80.8	-5.10001	12.1
											CHANNELS 3  Xrotation Yrotation Zrotation
											End Site
											{
												OFFSET	1	0	0
											}
										}
									}
								}
							}
						}
					}
					JOINT right_clavicle
					{
						OFFSET	43.2	22.4	-70.8
						CHANNELS 3  Xrotation Yrotation Zrotation
						JOINT right_shoulder
						{
							OFFSET	93.9	-5.79999	48.7
							CHANNELS 3  Xrotation Yrotation Zrotation
							JOINT right_elbow
							{
								OFFSET	291.4	-30.8	15.2
								CHANNELS 3  Xrotation Yrotation Zrotation
								JOINT right_lowarm_twist
								{
									OFFSET	110.7	-3.89999	13.6
									CHANNELS 3  Xrotation Yrotation Zrotation
									JOINT right_hand
									{
										OFFSET	110.7	-3.89999	13.6
										CHANNELS 3  Xrotation Yrotation Zrotation
										JOINT right_ee
										{
											OFFSET	80.8	-5.10001	12.1
											CHANNELS 3  Xrotation Yrotation Zrotation
											End Site
											{
												OFFSET	1	0	0
											}
										}
									}
								}
							}
						}
					}
				}
			}
		}
	}
	JOINT left_hip
	{
		OFFSET	-82.8	-127.5	0.300001
		CHANNELS 3  Xrotation Yrotation Zrotation
		JOINT left_knee
		{
			OFFSET	-28.2	-396.7	2.2
			CHANNELS 3  Xrotation Yrotation Zrotation
			JOINT left_ankle
			{
				OFFSET	-11.7	-411.3	35.4
				CHANNELS 3  Xrotation Yrotation Zrotation
				JOINT left_toes
				{
					OFFSET	0	-60	-88.6
					CHANNELS 3  Xrotation Yrotation Zrotation
					JOINT left_foot_ee
					{
						OFFSET	-22.5	-16.5	-42.2
						CHANNELS 3  Xrotation Yrotation Zrotation
						End Site
						{
							OFFSET	1	0	0
						}
					}
				}
			}
		}
	}
	JOINT right_hip
	{
		OFFSET	82.8	-127.5	0.300001
		CHANNELS 3  Xrotation Yrotation Zrotation
		JOINT right_knee
		{
			OFFSET	28.2	-396.7	2.2
			CHANNELS 3  Xrotation Yrotation Zrotation
			JOINT right_ankle
			{
				OFFSET	11.7	-411.3	35.4
				CHANNELS 3  Xrotation Yrotation Zrotation
				JOINT right_toes
				{
					OFFSET	0	-60	-88.6
					CHANNELS 3  Xrotation Yrotation Zrotation
					JOINT right_foot_ee
					{
						OFFSET	22.5	-16.5	-42.2
						CHANNELS 3  Xrotation Yrotation Zrotation
						End Site
						{
							OFFSET	1	0	0
						}
					}
				}
			}
		}
	}
}
MOTION
Frames: 8
Frame Time: 0.02
2440.34 711.606 -809.948 151.681 -73.8079 156.603 -1.79887 -0.102748 -1.61473 -1.79742 0.000195648 -1.618 -1.79613 0.389766 -1.57036 -1.79955 0.136899 -1.6122 -29.1192 13.5078 11.4076 -30.0027 21.9399 18.6654 -0.0 0.0 -0.0 5.25126 10.2082 10.2824 5.02124 -31.5781 54.7835 1.55817 -37.6609 0.531397 -3.84314 -0.151162 0.467314 1.65675 24.5649 19.5539 -0.0 0.0 -0.0 6.57919 11.1013 -12.4466 -17.5867 24.7431 -57.0316 0.247393 6.98698 -0.015103 36.1797 0.165612 4.54288 7.65419 1.31037 -62.7361 0.0 0.0 0.0 5.43184 14.6817 -6.27184 -30.7284 0.0154784 4.65957 39.3439 4.36876 -4.8009 -32.9554 0.0 0.0 -0.0 0.0 -0.0 12.3091 18.7067 -10.4254 -50.814 1.2938 -7.43938 39.3224 -24.3789 5.08282 3.81331 -0.0 -0.0 0.0 0.0 0.0 
2451.13 716.894 -814.088 155.458 -73.4951 159.939 -1.7982 -0.115169 -1.57197 -1.79682 -0.0149191 -1.57611 -1.79517 0.364975 -1.53336 -1.79843 0.118261 -1.57174 -28.7326 13.4351 10.9431 -29.6178 21.9063 18.0876 -0.0 0.0 -0.0 5.58559 9.75448 10.8735 5.48228 -30.9082 53.2823 1.70728 -40.2191 0.625139 -3.8563 -0.151733 0.468896 1.42509 24.3292 18.0817 -0.0 0.0 -0.0 6.17388 11.5415 -11.5651 -17.6711 24.1399 -57.1138 0.216796 6.1299 -0.0116082 36.4666 0.178351 4.57728 7.66816 0.914813 -63.2818 0.0 0.0 0.0 4.72506 16.436 -5.25338 -28.3069 0.105181 4.29881 39.221 4.16341 -4.79032 -33.3111 0.0 0.0 -0.0 0.0 -0.0 14.423 17.0259 -10.1865 -48.1074 1.06136 -7.09348 38.7922 -24.6715 5.04009 3.4621 -0.0 -0.0 0.0 0.0 0.0 
2469.59 720.034 -816.526 150.883 -74.0729 155.13 -2.4027 -0.267165 -1.68139 -2.40114 -0.159649 -1.69497 -2.39456 0.270677 -1.68082 -2.39851 0.00186541 -1.70247 -29.0043 13.3328 11.3187 -29.8476 21.6197 18.4383 -0.0 0.0 -0.0 5.79987 9.40504 11.2573 6.20659 -31.8543 53.1416 1.9815 -44.4624 0.809963 -3.84827 -0.151384 0.46793 1.32839 23.1542 17.1517 -0.0 0.0 -0.0 5.90336 11.1216 -11.0165 -18.7523 23.2689 -56.6346 0.233616 6.60145 -0.0134732 36.7586 0.191491 4.61222 7.67611 0.768525 -63.5277 0.0 0.0 0.0 2.15926 17.7236 -4.2987 -27.7089 0.124978 4.20916 38.9631 4.25161 -4.76743 -33.701 0.0 0.0 -0.0 0.0 -0.0 19.8286 14.1303 -11.5139 -45.3285 0.840081 -6.72753 38.0038 -24.9266 4.96973 3.19367 -0.0 -0.0 0.0 0.0 0.0 
2482.01 720.854 -820.272 150.449 -74.2876 154.825 -2.61934 -0.347433 -1.88324 -2.61739 -0.226916 -1.90152 -2.60735 0.264417 -1.89667 -2.61237 -0.0383886 -1.91463 -28.7992 13.3326 11.2471 -29.6334 21.6157 18.3141 -0.0 0.0 -0.0 6.26779 9.23847 12.0953 7.51881 -31.8877 52.2057 2.07237 -45.7463 0.874338 -3.8135 -0.149876 0.463749 1.21803 23.6549 16.6335 -0.0 0.0 -0.0 5.68871 11.3819 -10.5488 -19.2589 22.7233 -56.4505 0.209567 5.927 -0.0108491 36.7931 0.193055 4.61635 7.66873 0.476538 -63.6658 0.0 0.0 0.0 0.486435 18.4537 -3.88014 -26.77 0.154169 4.06802 38.399 4.41207 -4.71689 -33.9993 0.0 0.0 -0.0 0.0 -0.0 21.7442 14.1169 -11.6507 -44.6582 0.789394 -6.63771 37.6985 -25.057 4.94306 3.15453 -0.0 -0.0 0.0 0.0 0.0 
2491.88 721.357 -821.396 148.71 -74.1483 153.169 -2.7178 -0.282969 -2.06998 -2.71542 -0.150706 -2.08379 -2.70701 0.388143 -2.05287 -2.71289 0.0591333 -2.08839 -28.0257 13.8146 9.79299 -29.0618 22.9452 17.0941 -0.0 0.0 -0.0 6.11689 8.88788 11.8318 8.29025 -31.5388 52.7551 2.42883 -50.2611 1.13946 -3.16024 -0.122013 0.385022 1.21299 22.4118 16.2239 -0.0 0.0 -0.0 5.61696 12.0928 -10.3545 -20.9328 21.8436 -56.1693 0.26962 7.60767 -0.0179263 36.4209 0.176308 4.5718 7.76837 0.364398 -65.3347 0.0 0.0 0.0 -4.73102 13.9695 -1.25048 -20.7228 0.286346 3.14988 38.5037 5.1998 -4.7259 -34.2061 0.0 0.0 -0.0 0.0 -0.0 26.1777 13.4513 -12.1337 -45.5475 0.85687 -6.75675 37.6778 -24.6739 4.92932 3.14464 -0.0 -0.0 0.0 0.0 0.0 
2506.77 722.459 -826.356 143.948 -75.0974 148.416 -2.82199 -0.428671 -2.16868 -2.81942 -0.289838 -2.19154 -2.8048 0.284925 -2.19219 -2.8115 -0.0647781 -2.20967 -29.1473 13.0272 9.61628 -30.1108 21.6255 16.7465 -0.0 0.0 -0.0 6.56179 9.40845 12.6175 10.0659 -32.0057 53.7176 2.5451 -51.5713 1.22972 -5.01941 -0.203667 0.608237 0.826657 20.4452 13.2331 -0.0 0.0 -0.0 5.27765 10.9626 -9.70879 -22.0133 20.6177 -55.7597 0.341301 9.59647 -0.0286494 36.8969 0.197777 4.62875 7.66084 -0.166298 -64.0925 0.0 0.0 0.0 -4.67224 19.2495 -1.82876 -21.572 0.273647 3.27956 36.904 3.81568 -4.58119 -36.1362 0.0 0.0 -0.0 0.0 -0.0 27.4311 13.1772 -10.4922 -42.7024 0.647583 -6.37239 37.6973 -25.0244 4.94194 2.2564 -0.0 -0.0 0.0 0.0 0.0 
2522.94 723.248 -829.639 145.475 -75.3021 150.172 -2.75424 -0.311988 -2.24167 -2.75146 -0.16875 -2.25697 -2.74134 0.416422 -2.22465 -2.74824 0.0599481 -2.26247 -28.2202 13.2196 7.48164 -29.3595 22.6453 14.6896 -0.0 0.0 -0.0 6.72936 10.7477 12.8697 11.2572 -32.8225 54.4821 2.72553 -53.4645 1.37291 -5.8198 -0.241045 0.703506 0.708179 16.8321 11.2446 -0.0 0.0 -0.0 5.19552 10.8046 -9.54615 -22.8421 19.8236 -55.695 0.264258 7.4581 -0.0172233 36.4755 0.17875 4.57835 7.64499 -0.16606 -63.8468 0.0 0.0 0.0 -6.66294 18.8911 -0.92964 -18.7924 0.308054 2.85449 39.1623 1.83135 -4.79214 -36.6149 0.0 0.0 -0.0 0.0 -0.0 28.0599 13.0308 -9.66911 -37.0384 0.289183 -5.5792 38.8925 -25.317 5.07038 1.41376 -0.0 -0.0 0.0 0.0 0.0 
2538.07 720.1 -833.183 146.933 -75.4931 151.853 -2.65861 -0.287236 -2.40536 -2.6554 -0.13364 -2.41875 -2.64594 0.488007 -2.3728 -2.65378 0.107258 -2.42006 -27.7815 13.2689 6.34717 -28.9977 23.1164 13.5797 -0.0 0.0 -0.0 6.92897 11.2995 13.1979 12.3466 -33.1716 55.5408 2.9077 -55.2186 1.52095 -6.42282 -0.270086 0.774938 0.489068 15.3356 9.32654 -0.0 0.0 -0.0 5.1176 10.967 -9.37251 -24.3469 19.237 -55.6158 0.281821 7.94763 -0.0195775 36.0544 0.160105 4.52784 7.6932 -0.240623 -64.6653 0.0 0.0 0.0 -7.93213 19.4573 -0.563844 -16.8323 0.319902 2.55399 37.497 2.4908 -4.63988 -38.7974 0.0 0.0 -0.0 0.0 -0.0 28.4206 12.9403 -8.7797 -34.0667 0.133056 -5.1502 37.9199 -25.1682 4.96881 0.875568 -0.0 -0.0 0.0 0.0 0.0 
